<?xml version="1.0" encoding="UTF-8"?>
<svg version="1.1" xmlns="http://www.w3.org/2000/svg" width="1024" height="1024">
<path d="M0 0 C337.92 0 675.84 0 1024 0 C1024 337.92 1024 675.84 1024 1024 C686.08 1024 348.16 1024 0 1024 C0 686.08 0 348.16 0 0 Z " fill="#000000" transform="translate(0,0)"/>
<path d="M0 0 C0.6991452 0.00126892 1.39829041 0.00253784 2.11862183 0.00384521 C24.84714756 0.08196454 46.24017973 3.60179376 68.4375 8.1875 C69.78164026 12.75323916 68.99813929 16.58388427 67.99609375 21.1171875 C67.83324387 21.8921759 67.67039398 22.66716431 67.50260925 23.46563721 C67.15133087 25.13246766 66.79567973 26.7983814 66.43609619 28.46343994 C65.67877423 31.97143961 64.94297792 35.48384102 64.20611572 38.9961853 C63.83067151 40.78500295 63.4541599 42.57359689 63.07659912 44.36196899 C61.46202177 52.01899041 59.92285425 59.68900395 58.43777466 67.37213135 C58.07489423 69.24841528 57.70828907 71.12397765 57.34155273 72.99951172 C57.11798096 74.15725098 56.89440918 75.31499023 56.6640625 76.5078125 C56.4487085 77.6114917 56.23335449 78.7151709 56.01147461 79.85229492 C55.61507828 82.15564255 55.300487 84.47403032 55.05297852 86.7980957 C54.09089121 95.57035531 54.09089121 95.57035531 50.76171875 98.71484375 C49.56160156 99.18019531 48.36148438 99.64554687 47.125 100.125 C45.69264468 100.72853979 44.2617841 101.33563321 42.83203125 101.9453125 C41.58993896 102.44853027 41.58993896 102.44853027 40.32275391 102.96191406 C34.8747675 105.27608666 29.58711025 107.94329426 24.27163696 110.54421997 C21.12241242 112.08059338 17.96322689 113.59617548 14.8046875 115.11328125 C11.59684673 116.65508048 8.44658323 118.18233453 5.35205078 119.94213867 C1.92947225 121.40457569 0.90853893 121.3953529 -2.5625 120.1875 C-5.22452214 119.04762536 -7.8259677 117.86965735 -10.43359375 116.6171875 C-11.1923732 116.2578714 -11.95115265 115.8985553 -12.73292542 115.52835083 C-15.15778766 114.37825476 -17.5788262 113.22033723 -20 112.0625 C-22.38175902 110.93255146 -24.76418306 109.80402586 -27.14712524 108.67657471 C-28.71190986 107.92922035 -30.27217577 107.17232974 -31.82772827 106.40594482 C-35.42086337 104.63881042 -38.95958711 102.99906435 -42.73876953 101.66894531 C-46.44929568 100.2940195 -49.51541927 98.78163629 -52.5625 96.1875 C-54.49280198 91.62915253 -54.76515952 87.05185981 -55.20465088 82.1784668 C-55.87240018 76.597299 -57.10621622 71.11388091 -58.25570297 65.6157074 C-59.00299907 62.02454679 -59.7228621 58.4278653 -60.44726562 54.83203125 C-61.3531683 50.3547546 -62.26184734 45.87804705 -63.1730957 41.40185547 C-63.91982953 37.73264836 -64.66185965 34.06251586 -65.40094948 30.39176178 C-65.681029 29.0055641 -65.96290177 27.61972743 -66.24664879 26.23427582 C-66.64109849 24.30779906 -67.02906383 22.37999807 -67.41674805 20.45214844 C-67.63864304 19.35980896 -67.86053802 18.26746948 -68.0891571 17.14202881 C-68.52438313 14.42541927 -68.65569677 11.93157204 -68.5625 9.1875 C-60.8003227 6.29255492 -53.03874569 4.88172873 -44.875 3.5625 C-43.60205078 3.3459375 -42.32910156 3.129375 -41.01757812 2.90625 C-27.3502995 0.65500532 -13.8381115 -0.02616175 0 0 Z " fill="#6D348B" transform="translate(511.5625,280.8125)"/>
<path d="M0 0 C0.27880005 1.56004761 0.27880005 1.56004761 0.56323242 3.15161133 C5.1195623 28.64500102 5.1195623 28.64500102 9.75 54.125 C9.9358667 55.15085205 10.1217334 56.1767041 10.31323242 57.23364258 C11.48782319 63.60331653 12.88062087 69.89192097 14.42285156 76.18310547 C15 79 15 79 15 83 C15.8235498 83.25257568 16.64709961 83.50515137 17.49560547 83.76538086 C21.50167094 85.17674167 25.24743552 86.91338585 29.0703125 88.75390625 C29.85263748 89.12699921 30.63496246 89.50009216 31.44099426 89.88449097 C33.12617683 90.68862858 34.81060695 91.49434461 36.49435425 92.30148315 C39.15303899 93.57594067 41.81364118 94.84630815 44.47485352 96.11547852 C47.2255078 97.42732333 49.97605815 98.73937994 52.72602844 100.05265808 C61.34503137 104.16850678 69.97554344 108.25975224 78.61199951 112.33883667 C80.8871761 113.41372489 83.16162964 114.49013181 85.43603516 115.56665039 C88.13671258 116.84487245 90.84156947 118.11344252 93.55029297 119.37451172 C95.64252706 120.36036413 97.72363087 121.37102436 99.78173828 122.42626953 C100.55630371 122.81282715 101.33086914 123.19938477 102.12890625 123.59765625 C102.74967041 123.92386963 103.37043457 124.25008301 104.01000977 124.58618164 C108.98908357 125.62157976 114.44590168 121.94547281 118.828125 119.8671875 C119.80909904 119.40380478 119.80909904 119.40380478 120.80989075 118.93106079 C122.95808404 117.91548937 125.10401516 116.89522862 127.25 115.875 C128.75951487 115.16044937 130.26920205 114.44626264 131.77905273 113.73242188 C134.92807426 112.24326249 138.07634169 110.75252524 141.22412109 109.26074219 C148.11361726 105.99737977 155.01286314 102.75475488 161.91174316 99.5112915 C164.65205933 98.22278766 167.39200359 96.93349509 170.13174438 95.64376831 C171.42981475 95.03298871 172.72812961 94.42272844 174.02670288 93.8130188 C177.591158 92.13860864 181.14965074 90.4525334 184.70263672 88.75390625 C185.48174911 88.3830188 186.26086151 88.01213135 187.06358337 87.63000488 C188.57416106 86.91072118 190.08330789 86.18842293 191.59083557 85.46276855 C196.77495722 83 196.77495722 83 199 83 C199.12503906 82.0925 199.25007812 81.185 199.37890625 80.25 C200.15581766 74.82117795 201.04775045 69.41126492 201.9375 64 C202.10701172 62.94554687 202.27652344 61.89109375 202.45117188 60.8046875 C203.34130093 55.4029918 204.46816476 50.26097511 206 45 C206.52078681 42.22010045 206.91366723 39.42465555 207.3125 36.625 C209.09954226 24.66500494 211.55656935 12.84012539 214 1 C220.11098427 1.6432615 223.82344341 3.52937737 230 6 C230 15.9 230 25.8 230 36 C228.68 36.66 227.36 37.32 226 38 C223.6979051 41.22293286 223.52489346 44.11996324 224 48 C225.27324837 51.02928108 225.27324837 51.02928108 228 53 C232.29865635 53.90705593 235.75427109 53.72920717 239.5625 51.5 C241.17958038 48.6876863 241.51974706 46.32748417 241.62890625 43.09765625 C241.13850471 40.71617696 241.13850471 40.71617696 238.484375 39.078125 C234.48904524 34.12793656 235.47250292 28.83641636 235.6875 22.6875 C235.71005859 21.46998047 235.73261719 20.25246094 235.75585938 18.99804688 C235.8146947 15.99744518 235.8968586 12.99935203 236 10 C239.41589896 11.06994306 242.51934454 12.09347777 245.515625 14.06640625 C246.12220947 14.46472656 246.72879395 14.86304688 247.35375977 15.2734375 C247.97951904 15.69882812 248.60527832 16.12421875 249.25 16.5625 C249.90605225 17.00722656 250.56210449 17.45195312 251.23803711 17.91015625 C260.15261825 24.06221127 268.79075041 30.66509451 273 41 C273.421875 43.52734375 273.421875 43.52734375 273 46 C271.1640625 48.17578125 271.1640625 48.17578125 268.625 50.3125 C267.24248047 51.488125 267.24248047 51.488125 265.83203125 52.6875 C264.89746094 53.450625 263.96289062 54.21375 263 55 C262.22011719 55.639375 261.44023438 56.27875 260.63671875 56.9375 C259.86972656 57.55625 259.10273437 58.175 258.3125 58.8125 C257.50039063 59.493125 256.68828125 60.17375 255.8515625 60.875 C253.59991774 62.55293801 251.68427128 63.70021938 249.2109375 64.9375 C243.95939229 67.87568205 239.36280372 70.88616241 237.38171387 76.86639404 C234.61906807 87.64071265 233.80870137 98.93732276 233 110 C232.32340332 109.93143799 231.64680664 109.86287598 230.94970703 109.79223633 C211.84278149 107.94248457 194.35029298 108.17628064 176.59375 116.1015625 C175.91148849 116.4032988 175.22922699 116.7050351 174.52629089 117.01591492 C167.10757267 120.33705986 159.85174627 123.97705755 152.603302 127.65161133 C148.68315721 129.63818707 144.75559569 131.60998852 140.828125 133.58203125 C140.06242691 133.96674591 139.29672882 134.35146057 138.50782776 134.74783325 C132.2244709 137.89958817 125.91197095 140.98320436 119.5625 144 C118.74241455 144.39034424 117.9223291 144.78068848 117.07739258 145.18286133 C113.02343539 147.09624507 113.02343539 147.09624507 111 148 C110.23518311 148.42966064 109.47036621 148.85932129 108.68237305 149.30200195 C104.83321987 150.30361558 102.56076005 148.76324969 99.265625 146.91796875 C97.83325372 146.15956431 96.40026804 145.40231956 94.96679688 144.64599609 C93.78380005 144.01150543 93.78380005 144.01150543 92.5769043 143.36419678 C87.73470031 140.80076472 82.82241135 138.3752516 77.921875 135.92578125 C75.74980776 134.83566942 73.57793546 133.74516908 71.40625 132.65429688 C69.76462891 131.83046509 69.76462891 131.83046509 68.08984375 130.98999023 C65.85540776 129.86770883 63.62168792 128.74400051 61.38867188 127.61889648 C58.109992 125.96734054 54.82869241 124.32109199 51.546875 122.67578125 C50.56531433 122.17983963 49.58375366 121.68389801 48.57244873 121.17292786 C29.9093863 111.83991044 15.48969601 109.13103663 -6 108 C-6 91.17 -6 74.34 -6 57 C-7.32 56.34 -8.64 55.68 -10 55 C-11.70410156 53.59887695 -11.70410156 53.59887695 -13.390625 51.98828125 C-14.01445068 51.39950195 -14.63827637 50.81072266 -15.28100586 50.20410156 C-16.61189211 48.92552665 -17.94078125 47.64487016 -19.26782227 46.36230469 C-22.67863883 43.08918544 -25.95394223 40.31749953 -29.9375 37.75 C-33.3459374 34.84456988 -33.63041095 31.66862091 -33.99121094 27.40307617 C-34.12920597 22.63043296 -34.21753125 17.94805 -31.6328125 13.8125 C-29.19134366 12.08680315 -26.78484169 11.1099249 -24 10 C-22.42070202 9.24490782 -20.84693758 8.47818728 -19.27734375 7.703125 C-3.57602946 0 -3.57602946 0 0 0 Z " fill="#3E3E46" transform="translate(405,323)"/>
<path d="M0 0 C0.11578903 0.58221817 0.23157806 1.16443634 0.35087585 1.76429749 C2.98002 14.9729793 5.64002035 28.17510404 8.33203125 41.37109375 C8.61906858 42.77901824 8.90608634 44.18694672 9.19308472 45.59487915 C10.36769609 51.35638156 11.54249388 57.11784429 12.72045898 62.87866211 C13.45408786 66.46678838 14.18583951 70.05529297 14.91632652 73.64406013 C15.19193039 74.99622988 15.46824009 76.34825597 15.74527931 77.70013237 C16.12729754 79.56461648 16.50670988 81.42963395 16.88598633 83.29467773 C17.10184891 84.35178452 17.31771149 85.4088913 17.54011536 86.49803162 C18 89 18 89 18 91 C19.155 91.33644531 20.31 91.67289062 21.5 92.01953125 C28.21321039 94.26032745 34.48130359 97.48444045 40.81430054 100.6098938 C43.02448413 101.69957131 45.23873062 102.78054431 47.4543457 103.85913086 C53.56068203 106.8336634 59.65858784 109.82280919 65.73046875 112.8671875 C67.21608891 113.5990739 68.701759 114.33085894 70.1875 115.0625 C70.81978516 115.39016357 71.45207031 115.71782715 72.10351562 116.05541992 C76.23223658 118.06972484 78.58385688 118.03687746 83 117 C85.18350563 116.08849424 87.33364786 115.09480345 89.453125 114.04296875 C90.06280121 113.74479752 90.67247742 113.44662628 91.30062866 113.13941956 C94.67593746 111.48513603 98.03198415 109.79320252 101.38818359 108.10058594 C108.05277506 104.76204369 114.5811956 101.68062791 121.6484375 99.28515625 C133.28497446 95.59941946 133.28497446 95.59941946 141.50537109 87.234375 C143.74722486 80.44867928 144.27745029 73.53229173 144.72216797 66.43505859 C145.13272562 61.35900749 146.23274498 56.51572136 147.375 51.5625 C149.99417569 39.35973828 152.33118584 27.1015263 154.67724609 14.84399414 C154.82384674 14.08206757 154.97044739 13.32014099 155.12149048 12.53512573 C155.39843963 11.09570143 155.67373315 9.65595728 155.94711304 8.21585083 C156.4905464 5.39639065 157.09049438 2.72851685 158 0 C165.48252838 1.37179687 172.05604954 3.92163279 179 7 C179.14846483 12.74037041 178.65950922 17.94347636 177.56640625 23.5703125 C177.33771347 24.79855995 177.33771347 24.79855995 177.10440063 26.05162048 C176.24554707 30.63885372 175.34954599 35.2187137 174.45239258 39.79858398 C174.06929802 41.76275551 173.68673863 43.72703149 173.3046875 45.69140625 C173.11011459 46.68814865 172.91554169 47.68489105 172.71507263 48.71183777 C171.51504314 54.9702727 170.48853817 61.23249737 169.59028625 67.5411377 C168.98867766 71.71477351 168.32284824 75.87700379 167.65036011 80.03973389 C167.34484868 82.03491464 167.06873126 84.03484611 166.82400513 86.03839111 C164.94614125 101.23981179 164.94614125 101.23981179 160.11578369 105.76528931 C155.5183054 108.95752236 150.5407399 111.10520302 145.33096313 113.09927368 C142.21779989 114.30225627 139.24762044 115.75844202 136.25 117.22265625 C134.16886461 118.17409328 132.08549145 119.1206495 130 120.0625 C121.80095957 123.79232979 113.67920498 127.62949439 105.6328125 131.6796875 C104.03789489 132.47675026 102.44284323 133.27354485 100.84765625 134.07006836 C98.49588101 135.24471674 96.1484407 136.42543557 93.81103516 137.62844849 C91.63507283 138.74789508 89.44816424 139.84263824 87.2578125 140.93359375 C86.61208282 141.27450043 85.96635315 141.6154071 85.30105591 141.96664429 C82.22638836 143.47156646 80.42319623 144.08332523 77.02783203 143.41479492 C75.52905518 142.71447144 75.52905518 142.71447144 74 142 C72.20320801 141.1953833 72.20320801 141.1953833 70.37011719 140.37451172 C69.01070103 139.72974367 67.65304692 139.08125167 66.296875 138.4296875 C65.55342834 138.07605637 64.80998169 137.72242523 64.04400635 137.358078 C61.61117973 136.20015306 59.18061878 135.03755127 56.75 133.875 C54.19779124 132.65892542 51.64499483 131.4440905 49.09216309 130.22932434 C47.34531301 129.39800057 45.59865128 128.56628091 43.85217285 127.73417664 C34.19041058 123.13248768 24.50418024 118.58308576 14.8157959 114.03778076 C12.77275605 113.0791561 10.73011268 112.11969067 8.6875 111.16015625 C6.96080078 110.35010132 6.96080078 110.35010132 5.19921875 109.52368164 C4.14347656 109.0208667 3.08773438 108.51805176 2 108 C0.90018799 107.52312744 -0.19962402 107.04625488 -1.33276367 106.55493164 C-4 105 -4 105 -4.99731445 103.14208984 C-5.1180835 102.42230957 -5.23885254 101.7025293 -5.36328125 100.9609375 C-5.60328857 99.66144165 -5.60328857 99.66144165 -5.84814453 98.33569336 C-6.00138184 97.35866455 -6.15461914 96.38163574 -6.3125 95.375 C-6.59262939 93.80600952 -6.59262939 93.80600952 -6.87841797 92.20532227 C-7.32674957 89.69006789 -7.76468505 87.17440365 -8.19287109 84.65576172 C-9.14656798 79.0957654 -10.17850296 73.55046153 -11.20703125 68.00390625 C-12.97297209 58.47152568 -14.7291227 48.93748841 -16.45872498 39.3984375 C-17.25793113 35.00201065 -18.06860345 30.60971036 -18.94042969 26.22705078 C-19.08233734 25.50530167 -19.224245 24.78355255 -19.37045288 24.03993225 C-19.74016869 22.17199247 -20.11844236 20.30575184 -20.49755859 18.43969727 C-21.06615303 14.54711853 -21.08455943 10.92932057 -21 7 C-18.56292162 6.0197729 -16.12536055 5.04077829 -13.6875 4.0625 C-12.99720703 3.78470703 -12.30691406 3.50691406 -11.59570312 3.22070312 C-3.56334714 0 -3.56334714 0 0 0 Z " fill="#532771" transform="translate(433,294)"/>
<path d="M0 0 C9.78469549 7.65439392 17.19264866 18.37233569 19.35546875 30.76953125 C20.9731936 45.66287113 17.14466017 58.96475723 7.8515625 70.78515625 C-1.42783261 80.88830967 -13.80731419 86.07497199 -27.2421875 87.29296875 C-40.75836244 87.82650197 -52.08403034 82.82765844 -62.42578125 74.37890625 C-71.25341838 66.18871338 -76.74641814 54.64051462 -77.55859375 42.67578125 C-78.02803793 28.55163451 -73.97742072 15.69232667 -64.2734375 5.28515625 C-45.88400205 -11.96073448 -20.80732774 -14.12139966 0 0 Z " fill="#090820" transform="translate(445.3984375,457.96484375)"/>
<path d="M0 0 C10.05760251 7.31771418 17.06426364 17.73412484 19.875 29.90234375 C22.18635401 44.70750322 18.26433296 57.70979464 9.78515625 69.86328125 C2.33921257 79.17979127 -8.39742383 85.61279188 -20.28393555 86.97729492 C-22.90728273 87.11497554 -25.50223712 87.14768513 -28.12890625 87.1171875 C-29.04833008 87.10961426 -29.96775391 87.10204102 -30.91503906 87.09423828 C-41.97483196 86.82587278 -49.92216737 83.29798099 -58.69140625 76.6796875 C-59.51769531 76.0609375 -60.34398437 75.4421875 -61.1953125 74.8046875 C-69.20195396 67.9883918 -74.90064626 58.20623303 -75.87792969 47.66845703 C-76.7254102 32.31225021 -74.78152373 19.64577425 -64.8046875 7.35546875 C-60.09953826 2.34491428 -54.80335926 -1.22310093 -48.69140625 -4.3203125 C-47.88316406 -4.73539062 -47.07492187 -5.15046875 -46.2421875 -5.578125 C-31.03336245 -12.2392643 -13.54961716 -8.71511376 0 0 Z " fill="#0A0922" transform="translate(635.69140625,457.3203125)"/>
<path d="M0 0 C1.22244667 0.00333092 1.22244667 0.00333092 2.46958923 0.00672913 C3.85090782 0.00684242 3.85090782 0.00684242 5.26013184 0.00695801 C6.2611644 0.01211929 7.26219696 0.01728058 8.29356384 0.02259827 C9.31316696 0.02401321 10.33277008 0.02542816 11.38327026 0.02688599 C14.65417867 0.03250355 17.92501972 0.04505902 21.19590759 0.05775452 C23.40749515 0.06276725 25.61908377 0.06733055 27.83067322 0.07142639 C33.26494116 0.08247868 38.69916957 0.09923389 44.13340759 0.12025452 C47.01703475 5.69497651 49.4772852 11.28523945 51.69981384 17.15150452 C52.01997971 17.9868573 52.34014557 18.82221008 52.67001343 19.68287659 C53.68246004 22.32722922 54.68924792 24.97369427 55.69590759 27.62025452 C56.3745764 29.39513472 57.05360983 31.16987555 57.73301697 32.94447327 C59.2638218 36.94672527 60.79324128 40.94947948 62.3125 44.95613098 C62.87104034 46.42858695 63.43203806 47.90011261 63.99520874 49.37080383 C66.83803996 56.84240915 66.83803996 56.84240915 66.13340759 60.12025452 C64.53918313 62.72498834 62.65364672 65.03164173 60.69590759 67.37025452 C59.9215033 68.32544983 59.9215033 68.32544983 59.13145447 69.29994202 C55.53697902 73.71668309 55.53697902 73.71668309 54.13340759 75.12025452 C45.60357149 75.82660974 36.97151127 75.79672028 28.41406441 75.92775631 C24.4515986 75.9893944 20.49384708 76.07750935 16.53379822 76.2313385 C-11.18761914 77.28237135 -11.18761914 77.28237135 -17.41835022 72.07777405 C-21.26591106 67.82113814 -23.89115718 62.81159645 -24.86659241 57.12025452 C-23.99016265 54.25718875 -23.03668161 51.56796477 -21.92909241 48.79603577 C-21.45246155 47.5665345 -21.45246155 47.5665345 -20.96620178 46.31219482 C-19.9432813 43.68156748 -18.90502459 41.05729178 -17.86659241 38.43275452 C-17.19764815 36.71633751 -16.52966964 34.99954379 -15.86268616 33.28236389 C-12.62153812 24.96453386 -9.3072665 16.67633891 -5.92909241 8.41322327 C-5.63454163 7.68919815 -5.33999084 6.96517303 -5.03651428 6.21920776 C-2.54277803 0.16381752 -2.54277803 0.16381752 0 0 Z " fill="#7E42A1" transform="translate(490.86659240722656,666.8797454833984)"/>
<path d="M0 0 C3.82839974 1.24104862 7.23132753 2.53106429 10.70703125 4.56640625 C11.54041016 5.05173828 12.37378906 5.53707031 13.23242188 6.03710938 C14.08384766 6.54048828 14.93527344 7.04386719 15.8125 7.5625 C16.68326172 8.06974609 17.55402344 8.57699219 18.45117188 9.09960938 C24.83828712 12.83828712 24.83828712 12.83828712 26 14 C26.09311889 15.50418739 26.11746028 17.01271356 26.11352539 18.51977539 C26.11344986 19.48069595 26.11337433 20.44161652 26.11329651 21.43165588 C26.10813522 22.476436 26.10297394 23.52121613 26.09765625 24.59765625 C26.0962413 25.66165146 26.09482635 26.72564667 26.09336853 27.82188416 C26.08775064 31.23545083 26.07519511 34.648953 26.0625 38.0625 C26.05748731 40.37044176 26.052924 42.67838455 26.04882812 44.98632812 C26.0377754 50.65757426 26.02101987 56.32878253 26 62 C26.73234863 62.27295898 27.46469727 62.54591797 28.21923828 62.82714844 C30.86604774 63.94350249 33.08825144 65.202989 35.4921875 66.765625 C36.77911499 67.59525757 36.77911499 67.59525757 38.09204102 68.44165039 C39.01041748 69.03840576 39.92879395 69.63516113 40.875 70.25 C48.71065896 75.29070769 56.59206454 80.23762841 64.5625 85.0625 C71.79464939 89.44185022 79.00713054 93.8487268 86.1875 98.3125 C99.0623752 106.31090939 112.03389726 114.1507179 125 122 C123.97936912 129.62373629 123.97936912 129.62373629 122.25 133.125 C119.50181715 138.95478494 117.27309596 144.97256932 115 151 C111.13543379 149.60201087 107.95855086 147.79471293 104.5546875 145.5 C103.4922583 144.78739014 102.4298291 144.07478027 101.33520508 143.34057617 C100.18179655 142.56039422 99.02839506 141.78020187 97.875 141 C96.66399527 140.18609919 95.45264444 139.37271313 94.2409668 138.55981445 C91.72841454 136.87349499 89.21735702 135.18498615 86.70751953 133.49462891 C81.08617397 129.7101215 75.45017438 125.94763461 69.8125 122.1875 C68.71558838 121.45547363 67.61867676 120.72344727 66.48852539 119.96923828 C55.78887168 112.83581347 45.05083814 105.75831574 34.264328 98.75682068 C33.0040358 97.92548796 31.75537026 97.07629042 30.51826477 96.21083069 C26.39745569 93.36989164 22.30097544 91.19545538 17.72216797 89.16113281 C2.11829375 81.60362058 2.11829375 81.60362058 -0.71294785 74.11400604 C-3.54860502 63.01415559 -2.34123963 50.97670112 -1.64794922 39.6706543 C-1.39998628 35.19463689 -1.29233121 30.71531511 -1.171875 26.234375 C-0.91632742 17.48055916 -0.50833617 8.74276741 0 0 Z " fill="#50246C" transform="translate(343,567)"/>
<path d="M0 0 C0.56002182 9.50005269 0.98429183 18.99432217 1.24349213 28.50736237 C1.3680282 32.92739684 1.53615353 37.3360431 1.81054688 41.74951172 C3.51766021 69.96646365 3.51766021 69.96646365 -2.11184692 78.02191162 C-7.59786063 83.20990977 -13.98702256 86.39879195 -20.81695557 89.48937988 C-25.59392457 91.75645018 -29.8143897 94.69398195 -34.15234375 97.6953125 C-35.77003005 98.76492616 -37.3906458 99.83012249 -39.01416016 100.89086914 C-55.68830973 111.8430871 -72.32723452 122.84622001 -88.9148407 133.92907715 C-90.12668092 134.73856928 -91.33884027 135.54758389 -92.55134583 136.3560791 C-95.77172591 138.50463202 -98.98345558 140.66506192 -102.18652344 142.83935547 C-103.21953079 143.53707314 -103.21953079 143.53707314 -104.27340698 144.24888611 C-105.60091363 145.1456676 -106.92600032 146.04604464 -108.24832153 146.95045471 C-112.77468243 150 -112.77468243 150 -115 150 C-116.10478537 147.16690656 -117.2088433 144.3335331 -118.3125 141.5 C-118.62123047 140.70851563 -118.92996094 139.91703125 -119.24804688 139.1015625 C-119.86621564 137.51384484 -120.48226711 135.92530119 -121.09619141 134.3359375 C-121.69155413 132.79719342 -122.29265696 131.2606561 -122.89990234 129.7265625 C-124.0866944 126.67899771 -125 124.3009833 -125 121 C-123.28198242 119.65649414 -123.28198242 119.65649414 -120.85546875 118.28515625 C-119.96093994 117.77025635 -119.06641113 117.25535645 -118.14477539 116.72485352 C-117.16887451 116.17627686 -116.19297363 115.6277002 -115.1875 115.0625 C-113.14704943 113.88782451 -111.10800864 112.71069711 -109.0703125 111.53125 C-107.52972168 110.64179687 -107.52972168 110.64179687 -105.95800781 109.734375 C-101.7625779 107.27445967 -97.65782517 104.68467391 -93.5625 102.0625 C-86.69772681 97.6824243 -79.77780973 93.40588557 -72.8125 89.1875 C-63.57110694 83.5893334 -54.39074156 77.89972421 -45.2434082 72.14916992 C-44.31101318 71.56369385 -43.37861816 70.97821777 -42.41796875 70.375 C-41.61125732 69.86710938 -40.8045459 69.35921875 -39.97338867 68.8359375 C-37 67 -37 67 -34.45225525 65.82901001 C-31.63115379 64.42633675 -29.33742563 63.11809642 -27 61 C-25.79570836 57.38389206 -26.17388535 54.08951836 -26.54296875 50.3359375 C-26.64452783 48.22688436 -26.74079266 46.11757087 -26.83227539 44.00805664 C-26.89367706 42.92042023 -26.95507874 41.83278381 -27.01834106 40.71218872 C-28.23317717 16.74574959 -28.23317717 16.74574959 -23.96777344 9.59130859 C-18.50165469 4.56342355 -12.14626385 2.51473713 -5 1 C-3 0 -3 0 0 0 Z " fill="#8446A6" transform="translate(681,568)"/>
<path d="M0 0 C3.99087505 -0.0238114 7.98173152 -0.03810723 11.97265625 -0.05078125 C13.09434204 -0.05758911 14.21602783 -0.06439697 15.3717041 -0.07141113 C24.09749434 -0.09216782 32.38189664 0.57240768 41 2 C42.55198989 2.24408447 44.10407801 2.48754494 45.65625 2.73046875 C53.15899541 3.9260828 60.61021753 5.22097829 68 7 C69.34414026 11.56573916 68.56063929 15.39638427 67.55859375 19.9296875 C67.39574387 20.7046759 67.23289398 21.47966431 67.06510925 22.27813721 C66.71383087 23.94496766 66.35817973 25.6108814 65.99859619 27.27593994 C65.24127423 30.78393961 64.50547792 34.29634102 63.76861572 37.8086853 C63.39317151 39.59750295 63.0166599 41.38609689 62.63909912 43.17446899 C61.02452177 50.83149041 59.48535425 58.50150395 58.00027466 66.18463135 C57.63739423 68.06091528 57.27078907 69.93647765 56.90405273 71.81201172 C55.41626503 79.51633942 54.13759595 87.23635011 53 95 C48.88210403 94.46158351 45.7086378 93.58516383 42.05078125 91.62890625 C41.12894043 91.14156006 40.20709961 90.65421387 39.25732422 90.15209961 C38.28553223 89.62753174 37.31374023 89.10296387 36.3125 88.5625 C35.30461426 88.0269751 34.29672852 87.4914502 33.25830078 86.93969727 C31.18337017 85.83699283 29.11013014 84.73110151 27.03857422 83.62207031 C24.17993037 82.09605153 21.31332141 80.5868015 18.44140625 79.0859375 C17.15592896 78.41389282 17.15592896 78.41389282 15.84448242 77.72827148 C14.2391953 76.88920544 12.6338903 76.0501736 11.02856445 75.21118164 C10.30499756 74.83082764 9.58143066 74.45047363 8.8359375 74.05859375 C8.21251465 73.73173584 7.5890918 73.40487793 6.94677734 73.06811523 C6.30434082 72.71563721 5.6619043 72.36315918 5 72 C3.71983253 71.4309494 3.71983253 71.4309494 2.4138031 70.85040283 C0 69 0 69 -0.60127258 66.01972961 C-0.59016953 64.80061386 -0.57906647 63.58149811 -0.56762695 62.32543945 C-0.56835709 61.652005 -0.56908722 60.97857056 -0.56983948 60.284729 C-0.56635752 58.06009184 -0.5274743 55.8375522 -0.48828125 53.61328125 C-0.47895512 52.07058354 -0.47183806 50.52787101 -0.46684265 48.9851532 C-0.44775659 44.92576166 -0.39864337 40.86726544 -0.34332275 36.80822754 C-0.29216408 32.6658947 -0.26933593 28.5234171 -0.24414062 24.38085938 C-0.19052492 16.25349549 -0.10519419 8.12685913 0 0 Z " fill="#AA6ACA" transform="translate(512,282)"/>
<path d="M0 0 C0.27880005 1.56004761 0.27880005 1.56004761 0.56323242 3.15161133 C5.1195623 28.64500102 5.1195623 28.64500102 9.75 54.125 C9.9358667 55.15085205 10.1217334 56.1767041 10.31323242 57.23364258 C11.48782319 63.60331653 12.88062087 69.89192097 14.42285156 76.18310547 C15 79 15 79 15 83 C15.8235498 83.25257568 16.64709961 83.50515137 17.49560547 83.76538086 C21.50167265 85.17674227 25.24742919 86.91339649 29.0703125 88.75390625 C29.85259216 89.12695389 30.63487183 89.50000153 31.44085693 89.88435364 C34.00375152 91.10726141 36.5643513 92.33489751 39.125 93.5625 C41.81703234 94.84847831 44.50964859 96.13322838 47.20230103 97.41790771 C49.04524364 98.29727138 50.88799496 99.17703605 52.7305603 100.05718994 C58.91174741 103.00874428 65.10076393 105.94319294 71.296875 108.86328125 C72.11135101 109.24716507 72.92582703 109.63104889 73.76498413 110.02656555 C76.89009228 111.49898704 80.01548687 112.97079484 83.1416626 114.44094849 C85.27980716 115.44661751 87.4172861 116.45369019 89.5546875 117.4609375 C90.16358826 117.74669144 90.77248901 118.03244537 91.39984131 118.32685852 C96.64671299 120.80118787 101.80634769 123.40317385 107 126 C107.33 133.92 107.66 141.84 108 150 C101.96348706 147.58539482 96.16199278 144.76765178 90.3125 141.9375 C89.68916779 141.63675568 89.06583557 141.33601135 88.4236145 141.02615356 C80.56706437 137.23388853 72.74050391 133.38564808 64.9453125 129.46875 C64.19281723 129.09085831 63.44032196 128.71296661 62.6650238 128.32362366 C58.99830617 126.48075407 55.33465204 124.63210277 51.67504883 122.77514648 C31.99131769 112.8228763 16.83122929 109.20164365 -6 108 C-6 91.17 -6 74.34 -6 57 C-7.32 56.34 -8.64 55.68 -10 55 C-11.70410156 53.59887695 -11.70410156 53.59887695 -13.390625 51.98828125 C-14.01445068 51.39950195 -14.63827637 50.81072266 -15.28100586 50.20410156 C-16.61189211 48.92552665 -17.94078125 47.64487016 -19.26782227 46.36230469 C-22.67863883 43.08918544 -25.95394223 40.31749953 -29.9375 37.75 C-33.3459374 34.84456988 -33.63041095 31.66862091 -33.99121094 27.40307617 C-34.12920597 22.63043296 -34.21753125 17.94805 -31.6328125 13.8125 C-29.19134366 12.08680315 -26.78484169 11.1099249 -24 10 C-22.42070202 9.24490782 -20.84693758 8.47818728 -19.27734375 7.703125 C-3.57602946 0 -3.57602946 0 0 0 Z " fill="#1F1F23" transform="translate(405,323)"/>
<path d="M0 0 C8.40303717 4.04883891 16.62408416 8.26085046 24.625 13.0625 C30.73844653 16.72918479 36.92914588 20.03208897 43.33984375 23.16015625 C49.19896188 26.0597971 54.87690135 29.29968494 60.56640625 32.515625 C63.40401449 34.11946366 66.25942417 35.6702492 69.15234375 37.171875 C70.11430664 37.68439819 70.11430664 37.68439819 71.09570312 38.20727539 C72.81645793 39.12308008 74.5465853 40.0212132 76.27734375 40.91796875 C81.24261983 44.71494457 82.62452775 51.57589463 84.55615234 57.36547852 C84.79239822 58.06577682 85.0286441 58.76607513 85.27204895 59.4875946 C86.04599234 61.78381686 86.81593393 64.08136018 87.5859375 66.37890625 C88.12989058 67.99455779 88.67413606 69.61011092 89.21865845 71.22557068 C90.64941777 75.47229443 92.07696476 79.72009033 93.50360107 83.96820068 C95.77845856 90.74082921 98.05753159 97.51203809 100.33787918 104.28281975 C101.12612362 106.62510023 101.91258837 108.96797227 102.69882202 111.31092834 C103.19408866 112.78358778 103.6894974 114.25619943 104.18505859 115.72875977 C104.4201734 116.42949395 104.6552882 117.13022814 104.89752769 117.85219669 C106.0580269 121.29134258 107.25118788 124.71335409 108.51055908 128.11764526 C108.74919992 128.7660308 108.98784077 129.41441633 109.23371315 130.08244991 C109.88536886 131.8411336 110.54714547 133.59605774 111.20962524 135.35069275 C112 138 112 138 111 140 C109.98421875 139.35933594 108.9684375 138.71867188 107.921875 138.05859375 C106.53131341 137.18479491 105.14068472 136.31110286 103.75 135.4375 C102.75613281 134.81004883 102.75613281 134.81004883 101.7421875 134.16992188 C101.05898438 133.74130859 100.37578125 133.31269531 99.671875 132.87109375 C98.58205322 132.1752417 98.58205322 132.1752417 97.47021484 131.46533203 C94.94838282 129.91938629 94.94838282 129.91938629 91.95556641 128.54638672 C86.07680387 125.61016268 82.53320151 123.34285886 79.9921875 117.140625 C79.24400753 114.85722509 78.54006437 112.55897765 77.875 110.25 C77.06999996 107.74795946 76.26264195 105.24667653 75.453125 102.74609375 C75.04977379 101.45567776 74.6467805 100.16514984 74.24414062 98.87451172 C72.26212375 92.60672813 69.92993183 86.46753116 67.625 80.3125 C67.22007324 79.2100293 66.81514648 78.10755859 66.39794922 76.97167969 C65.63560438 74.90804177 64.85873133 72.84969371 64.06518555 70.79785156 C63.39436016 69.03583943 62.76445427 67.25716345 62.19458008 65.45996094 C59.6685886 58.30960025 54.99167167 55.94904619 48.4375 52.625 C46.34967157 51.50760997 44.26244032 50.38910347 42.17578125 49.26953125 C41.13373535 48.72119629 40.09168945 48.17286133 39.01806641 47.60791016 C33.86787238 44.86408409 28.82011021 41.94204826 23.82666016 38.92285156 C19.97465722 36.61379853 16.22332648 34.62627099 12.04296875 32.97265625 C2.75309625 29.01813904 2.75309625 29.01813904 0 25 C-2.04157152 16.85581485 -1.04069026 8.24075998 0 0 Z " fill="#201F21" transform="translate(343,530)"/>
<path d="M0 0 C0 8.25 0 16.5 0 25 C-2.92875 26.670625 -5.8575 28.34125 -8.875 30.0625 C-25.01324955 39.28283236 -25.01324955 39.28283236 -41.1015625 48.58984375 C-44.50835223 50.57237767 -47.92411346 52.51748371 -51.3984375 54.37890625 C-52.54570313 55.01699219 -53.69296875 55.65507813 -54.875 56.3125 C-55.80054688 56.80363281 -56.72609375 57.29476562 -57.6796875 57.80078125 C-60.09880332 60.09364691 -60.72312087 61.38587557 -61.89697266 64.43334961 C-62.24285431 65.33095505 -62.58873596 66.22856049 -62.94509888 67.15336609 C-64.68069523 71.83684525 -66.33667992 76.54520154 -67.96875 81.265625 C-68.71186793 83.393359 -69.45536879 85.5209593 -70.19921875 87.6484375 C-71.35497446 90.96058617 -72.50814529 94.27355074 -73.65478516 97.58886719 C-74.77264131 100.81717098 -75.90108314 104.04161379 -77.03125 107.265625 C-77.36991089 108.25322815 -77.70857178 109.2408313 -78.05749512 110.25836182 C-80.64182502 117.59144962 -83.05336861 123.35157638 -90.0625 127.359375 C-91.02414062 127.91753906 -91.98578125 128.47570312 -92.9765625 129.05078125 C-93.97429688 129.61152344 -94.97203125 130.17226563 -96 130.75 C-96.99773438 131.32621094 -97.99546875 131.90242187 -99.0234375 132.49609375 C-102.96971519 134.76546792 -106.90943676 136.9998 -111 139 C-110.3857391 133.16721776 -108.82039911 128.00296732 -106.89453125 122.4765625 C-106.42123131 121.09210182 -106.42123131 121.09210182 -105.93836975 119.67967224 C-104.54624017 115.61498754 -103.13609081 111.55663058 -101.72637939 107.49801636 C-100.61664614 104.3026564 -99.50884719 101.10663605 -98.40234375 97.91015625 C-97.84416962 96.30003914 -97.84416962 96.30003914 -97.27471924 94.65739441 C-95.13936916 88.45404111 -93.10927376 82.23101128 -91.19859314 75.95483398 C-90.05563983 72.20249149 -88.87687423 68.46180508 -87.69638062 64.72113037 C-87.15475358 62.9680015 -86.63119143 61.20917499 -86.12710571 59.44488525 C-81.82557029 44.43045512 -81.82557029 44.43045512 -75.22663879 40.30635071 C-72.81681393 39.01788015 -70.36446816 37.88850629 -67.85070801 36.81845093 C-64.84287261 35.48827585 -62.02525851 33.83458478 -59.16796875 32.2109375 C-57.43778886 31.25939378 -55.70760121 30.30786343 -53.97671509 29.35760498 C-50.84464334 27.6375271 -47.71524293 25.91260414 -44.5859375 24.1875 C-43.95317398 23.83867767 -43.32041046 23.48985535 -42.66847229 23.13046265 C-36.2053163 19.56527156 -29.75545882 15.97658131 -23.3125 12.375 C-21.81916138 11.54234619 -21.81916138 11.54234619 -20.2956543 10.69287109 C-14.78280186 7.60604891 -9.35064078 4.42561681 -3.98510742 1.08837891 C-2 0 -2 0 0 0 Z " fill="#39383D" transform="translate(681,530)"/>
<path d="M0 0 C9.78469549 7.65439392 17.19264866 18.37233569 19.35546875 30.76953125 C20.9731936 45.66287113 17.14466017 58.96475723 7.8515625 70.78515625 C-1.42783261 80.88830967 -13.80731419 86.07497199 -27.2421875 87.29296875 C-40.75836244 87.82650197 -52.08403034 82.82765844 -62.42578125 74.37890625 C-71.25341838 66.18871338 -76.74641814 54.64051462 -77.55859375 42.67578125 C-78.02803793 28.55163451 -73.97742072 15.69232667 -64.2734375 5.28515625 C-45.88400205 -11.96073448 -20.80732774 -14.12139966 0 0 Z M-57.3984375 17.03515625 C-63.19033727 26.52351238 -66.1491023 35.07213236 -63.71484375 46.14453125 C-60.78077441 55.73808576 -55.75183508 63.33658341 -47.3984375 69.03515625 C-38.24271199 73.89234622 -29.52169439 75.61152703 -19.3359375 72.91015625 C-9.7460609 69.67845802 -2.31732407 63.48160871 2.921875 54.86328125 C6.83809845 46.70220022 6.95018359 36.79331373 4.90625 28.06640625 C1.3702291 18.43892078 -4.48578522 11.96784829 -13.3984375 7.03515625 C-14.00171875 6.69355469 -14.605 6.35195313 -15.2265625 6 C-30.08661286 -0.94545832 -47.38215609 5.16271081 -57.3984375 17.03515625 Z " fill="#6A338D" transform="translate(445.3984375,457.96484375)"/>
<path d="M0 0 C10.05760251 7.31771418 17.06426364 17.73412484 19.875 29.90234375 C22.18635401 44.70750322 18.26433296 57.70979464 9.78515625 69.86328125 C2.33921257 79.17979127 -8.39742383 85.61279188 -20.28393555 86.97729492 C-22.90728273 87.11497554 -25.50223712 87.14768513 -28.12890625 87.1171875 C-29.04833008 87.10961426 -29.96775391 87.10204102 -30.91503906 87.09423828 C-41.97483196 86.82587278 -49.92216737 83.29798099 -58.69140625 76.6796875 C-59.51769531 76.0609375 -60.34398437 75.4421875 -61.1953125 74.8046875 C-69.20195396 67.9883918 -74.90064626 58.20623303 -75.87792969 47.66845703 C-76.7254102 32.31225021 -74.78152373 19.64577425 -64.8046875 7.35546875 C-60.09953826 2.34491428 -54.80335926 -1.22310093 -48.69140625 -4.3203125 C-47.88316406 -4.73539062 -47.07492187 -5.15046875 -46.2421875 -5.578125 C-31.03336245 -12.2392643 -13.54961716 -8.71511376 0 0 Z M-56.3046875 17.67578125 C-62.79408848 26.70941388 -65.36205586 34.83374822 -64.1484375 45.9296875 C-63.7519256 48.75882552 -63.7519256 48.75882552 -62.69140625 51.6796875 C-62.03140625 51.6796875 -61.37140625 51.6796875 -60.69140625 51.6796875 C-60.50578125 52.5046875 -60.32015625 53.3296875 -60.12890625 54.1796875 C-57.11006224 61.5299164 -50.65455125 67.88483259 -43.69140625 71.6796875 C-33.47161059 75.3345402 -23.53460268 76.15349076 -13.43359375 71.6796875 C-3.93845531 66.78727719 1.14258414 60.41122558 5.30859375 50.6796875 C5.74171875 49.7103125 6.17484375 48.7409375 6.62109375 47.7421875 C8.8521509 37.80384202 7.06720987 28.86290314 1.80078125 20.19921875 C-3.9379311 12.23175067 -11.94155724 6.48741027 -21.69140625 4.6796875 C-35.40439295 3.19986879 -47.49961106 6.78136464 -56.3046875 17.67578125 Z " fill="#7F45A3" transform="translate(635.69140625,457.3203125)"/>
<path d="M0 0 C1.22244667 0.00333092 1.22244667 0.00333092 2.46958923 0.00672913 C3.85090782 0.00684242 3.85090782 0.00684242 5.26013184 0.00695801 C6.2611644 0.01211929 7.26219696 0.01728058 8.29356384 0.02259827 C9.31316696 0.02401321 10.33277008 0.02542816 11.38327026 0.02688599 C14.65417867 0.03250355 17.92501972 0.04505902 21.19590759 0.05775452 C23.40749515 0.06276725 25.61908377 0.06733055 27.83067322 0.07142639 C33.26494116 0.08247868 38.69916957 0.09923389 44.13340759 0.12025452 C44.13340759 0.45025452 44.13340759 0.78025452 44.13340759 1.12025452 C29.28340759 1.12025452 14.43340759 1.12025452 -0.86659241 1.12025452 C-0.20659241 3.10025452 0.45340759 5.08025452 1.13340759 7.12025452 C7.73340759 7.45025452 14.33340759 7.78025452 21.13340759 8.12025452 C21.13340759 30.23025452 21.13340759 52.34025452 21.13340759 75.12025452 C-11.85018318 76.88948927 -11.85018318 76.88948927 -17.53846741 72.14369202 C-21.28444281 67.85785378 -23.89984115 62.75965103 -24.86659241 57.12025452 C-23.99016265 54.25718875 -23.03668161 51.56796477 -21.92909241 48.79603577 C-21.45246155 47.5665345 -21.45246155 47.5665345 -20.96620178 46.31219482 C-19.9432813 43.68156748 -18.90502459 41.05729178 -17.86659241 38.43275452 C-17.19764815 36.71633751 -16.52966964 34.99954379 -15.86268616 33.28236389 C-12.62153812 24.96453386 -9.3072665 16.67633891 -5.92909241 8.41322327 C-5.63454163 7.68919815 -5.33999084 6.96517303 -5.03651428 6.21920776 C-2.54277803 0.16381752 -2.54277803 0.16381752 0 0 Z " fill="#522570" transform="translate(490.86659240722656,666.8797454833984)"/>
<path d="M0 0 C7.48252838 1.37179687 14.05604954 3.92163279 21 7 C21.16009092 12.8630702 20.61449787 18.17478466 19.49609375 23.921875 C19.2579747 25.19167961 19.2579747 25.19167961 19.01504517 26.48713684 C18.49633205 29.24282967 17.9671846 31.99639689 17.4375 34.75 C17.07492666 36.66127975 16.71287182 38.57265792 16.35131836 40.48413086 C15.4253739 45.36763339 14.48984907 50.24924547 13.55114746 55.13031006 C13.01525008 57.92059659 12.48217334 60.71140524 11.95019531 63.50244141 C10.99294908 68.52349052 10.02907227 73.54323893 9.0625 78.5625 C8.91352264 79.33952271 8.76454529 80.11654541 8.61105347 80.91711426 C8.19307338 83.09250338 7.77106205 85.26706755 7.34765625 87.44140625 C6.99199585 89.27747437 6.99199585 89.27747437 6.62915039 91.15063477 C6 94 6 94 5 96 C0.19279775 95.40925318 -3.9198763 93.9584358 -8.3125 92 C-8.94478516 91.72671875 -9.57707031 91.4534375 -10.22851562 91.171875 C-14.84839286 89.15160714 -14.84839286 89.15160714 -16 88 C-16.4275719 80.95763923 -15.15232896 74.39568588 -13.8125 67.5 C-13.58691406 66.31092041 -13.36132812 65.12184082 -13.12890625 63.89672852 C-11.4755396 55.25731369 -9.71026527 46.642899 -7.88500977 38.03833008 C-6.00419404 29.14430316 -4.28928329 20.22120677 -2.61132812 11.28686523 C-2.41474609 10.24731689 -2.21816406 9.20776855 -2.015625 8.13671875 C-1.84321289 7.21592529 -1.67080078 6.29513184 -1.49316406 5.34643555 C-1 3 -1 3 0 0 Z " fill="#AA6BC7" transform="translate(591,294)"/>
<path d="M0 0 C5.5081291 3.45859269 8.96426111 8.89278332 11 15 C11.94144636 23.08298949 10.71762812 29.31574619 6 36 C1.02802805 41.51306951 -3.65539393 44.48791864 -11.1484375 45.37109375 C-18.5030744 45.52246037 -23.45278899 45.02795154 -29 40 C-34.7335032 34.48903003 -38.06762824 28.77740329 -38.5 20.6875 C-38.28259588 13.80618689 -35.91990085 8.21255606 -31.28515625 3.11328125 C-22.4575002 -4.8644473 -10.46477814 -5.23238907 0 0 Z " fill="#0A0B30" transform="translate(621,476)"/>
<path d="M0 0 C0.7734375 0.64582031 0.7734375 0.64582031 1.5625 1.3046875 C4.53377981 3.3712507 7.67640232 4.74132649 11 6.125 C11.61617187 6.38925781 12.23234375 6.65351563 12.8671875 6.92578125 C15.87268475 8.19634554 18.79812134 9.34361488 22 10 C21.99036797 13.04693242 21.95551924 15.16286346 21 18 C18.7344799 20.22636489 16.05714305 21.38045858 13.1875 22.6875 C11.92800537 23.3050415 11.92800537 23.3050415 10.64306641 23.93505859 C7.77768275 25.32578658 4.89202338 26.66561435 2 28 C-0.11080764 28.98800238 -2.22148034 29.97629307 -4.33203125 30.96484375 C-7.7601897 32.5638841 -11.19130909 34.15540167 -14.62988281 35.73193359 C-21.4700287 38.86999567 -28.26734041 42.07921857 -35.02734375 45.38671875 C-35.7814856 45.75531006 -36.53562744 46.12390137 -37.31262207 46.50366211 C-41.02065544 48.31791356 -44.72459888 50.14004562 -48.42431641 51.97119141 C-49.77367666 52.63331405 -51.12311913 53.29526916 -52.47265625 53.95703125 C-53.09011215 54.26573654 -53.70756805 54.57444183 -54.34373474 54.89250183 C-57.11557518 56.24588332 -58.86762441 57 -62 57 C-62 49.08 -62 41.16 -62 33 C-59.91429687 32.03449219 -57.82859375 31.06898438 -55.6796875 30.07421875 C-45.60822301 25.38807128 -35.6402442 20.49037883 -25.66308594 15.60766602 C-23.25780658 14.43112903 -20.85159419 13.25651655 -18.4453125 12.08203125 C-17.72949005 11.73090775 -17.0136676 11.37978424 -16.27615356 11.01802063 C-15.5844809 10.68054306 -14.89280823 10.34306549 -14.18017578 9.99536133 C-13.50488831 9.66444489 -12.82960083 9.33352844 -12.1338501 8.99258423 C-10.61132234 8.28436342 -9.06605234 7.62421332 -7.50823975 6.99740601 C-6.69196106 6.66657013 -5.87568237 6.33573425 -5.03466797 5.99487305 C-4.28716278 5.70686325 -3.53965759 5.41885345 -2.76950073 5.12211609 C-0.79930164 4.12802213 -0.79930164 4.12802213 -0.24783325 1.87532043 C-0.16604828 1.25646469 -0.08426331 0.63760895 0 0 Z " fill="#8042A1" transform="translate(574,380)"/>
<path d="M0 0 C6.22209328 3.8836802 10.03017966 9.18554892 12.46484375 16.046875 C13.57741759 23.38986231 12.21739681 29.57519601 8.77734375 36.109375 C4.22670089 41.45395981 -1.5383334 45.59647623 -8.58984375 46.578125 C-16.17035671 46.64565741 -21.54561323 46.3927081 -27.22265625 41.109375 C-33.19717341 35.21800221 -36.48341322 30.46780012 -36.66015625 21.859375 C-36.53832067 14.67919818 -34.67427709 9.79233772 -29.765625 4.5546875 C-28.28515625 3.234375 -28.28515625 3.234375 -25.22265625 1.109375 C-24.37703125 0.51125 -23.53140625 -0.086875 -22.66015625 -0.703125 C-15.59849899 -3.1426066 -6.89825065 -3.09181636 0 0 Z " fill="#0B0D30" transform="translate(428.22265625,474.890625)"/>
<path d="M0 0 C0 20.79 0 41.58 0 63 C-10.89 63 -21.78 63 -33 63 C-33.11503302 57.41195159 -33.21449142 51.82803691 -33.2746582 46.23974609 C-33.29974604 44.34051569 -33.33382468 42.4413813 -33.37719727 40.54248047 C-33.4381033 37.80672479 -33.46626653 35.0722493 -33.48828125 32.3359375 C-33.51408768 31.49195404 -33.5398941 30.64797058 -33.56648254 29.77841187 C-33.5684703 25.56568523 -33.328248 22.86029307 -30.61743164 19.52685547 C-28.19955787 17.19265217 -26.00736492 15.45607269 -23.125 13.75 C-17.61033938 10.40208189 -12.27016481 6.8487392 -6.95166016 3.20019531 C-2.21839998 0 -2.21839998 0 0 0 Z " fill="#773C96" transform="translate(333,443)"/>
<path d="M0 0 C0 26.4 0 52.8 0 80 C-2.31 78.02 -4.62 76.04 -7 74 C-15.21126271 67.2692701 -23.38566751 62.42316184 -33 58 C-33.16898349 51.50181659 -32.52760339 45.30604917 -31.625 38.875 C-31.49867188 37.91207031 -31.37234375 36.94914062 -31.2421875 35.95703125 C-29.86038089 25.91129717 -28.07003002 21.38961946 -20 15.125 C-19.23558594 14.5151123 -18.47117187 13.90522461 -17.68359375 13.27685547 C-16.16192561 12.06447732 -14.63596438 10.85746516 -13.10546875 9.65625 C-11.28538282 8.22449409 -9.48153218 6.77664717 -7.6875 5.3125 C-1.16071429 0 -1.16071429 0 0 0 Z " fill="#3C3C43" transform="translate(681,380)"/>
<path d="M0 0 C4.61850205 2.30925102 8.38180343 5.26599025 12.35083008 8.51513672 C15.30366103 10.92369344 18.17202899 13.17030386 21.48046875 15.0703125 C26.17732278 18.07950278 29.2213471 20.34327998 30.80126953 25.73388672 C32.80248848 36.04489855 33.13191377 46.52384833 33 57 C32.12859375 57.40089844 31.2571875 57.80179687 30.359375 58.21484375 C18.8150178 63.7246506 9.75945927 70.63474919 0 79 C0 52.93 0 26.86 0 0 Z " fill="#1F1F22" transform="translate(343,381)"/>
<path d="M0 0 C6.29416537 3.49675854 11.95532434 6.87142457 17.75 11 C18.84248047 11.76183594 18.84248047 11.76183594 19.95703125 12.5390625 C30.28248713 19.8474614 30.28248713 19.8474614 32 25 C32.0853013 27.87694671 32.11585645 30.72900182 32.09765625 33.60546875 C32.0962413 34.44467361 32.09482635 35.28387848 32.09336853 36.14851379 C32.08777215 38.82821216 32.07522035 41.5078269 32.0625 44.1875 C32.05748453 46.00455608 32.05292171 47.82161348 32.04882812 49.63867188 C32.03865491 54.09250604 32.0190788 58.54615943 32 63 C21.44 63 10.88 63 0 63 C0 42.21 0 21.42 0 0 Z " fill="#AA6AC7" transform="translate(692,443)"/>
<path d="M0 0 C10.56 0 21.12 0 32 0 C32 18.15 32 36.3 32 55 C27.89849356 53.35939742 24.94620753 51.79469358 21.33203125 49.375 C20.27435547 48.66859375 19.21667969 47.9621875 18.12695312 47.234375 C16.48629883 46.12835937 16.48629883 46.12835937 14.8125 45 C13.69621198 44.25483603 12.57967776 43.51004073 11.46289062 42.765625 C1.36880484 35.99919196 1.36880484 35.99919196 0.38110352 33.32324219 C-0.14146269 30.13763041 -0.11088545 27.05604907 -0.09765625 23.828125 C-0.09390991 21.95495605 -0.09390991 21.95495605 -0.09008789 20.04394531 C-0.08098389 18.46194336 -0.07187988 16.87994141 -0.0625 15.25 C-0.041875 10.2175 -0.02125 5.185 0 0 Z " fill="#201F22" transform="translate(300,516)"/>
<path d="M0 0 C-0.06703125 1.01578125 -0.1340625 2.0315625 -0.203125 3.078125 C-0.36034473 9.07514377 -0.49367488 14.6530252 3.45703125 19.48828125 C6.4133279 22.5912864 9.67753556 25.30217173 13 28 C14.46133212 29.30916034 15.92018349 30.62110292 17.375 31.9375 C19.57609731 33.82200112 21.59487432 35.36718251 24.08081055 36.90161133 C26.18333732 38.66933335 26.91562863 39.63210207 27.53570557 42.33592224 C27.71176881 45.29790482 27.70025251 48.20563421 27.62109375 51.171875 C27.61497574 52.25003479 27.60885773 53.32819458 27.60255432 54.43902588 C27.5756365 57.87697175 27.50645809 61.31266727 27.4375 64.75 C27.4159764 67.07940416 27.39706565 69.40883403 27.38085938 71.73828125 C27.33870626 75.98175918 27.29357348 80.22491515 27.20874023 84.46777344 C27.19286362 85.32095154 27.176987 86.17412964 27.16062927 87.05316162 C27 89 27 89 26 90 C24.00041636 90.04080783 21.99954746 90.04254356 20 90 C19.67634686 88.1551771 19.35421149 86.31007844 19.03857422 84.46386719 C18.75925014 82.8420067 18.47160127 81.22156116 18.17626953 79.60253906 C17.46284218 75.53324407 16.91996618 71.64828162 16.953125 67.51171875 C16.90914592 59.75634091 16.90914592 59.75634091 13.41113281 53.02880859 C9.3228584 49.02887991 4.76794327 45.70412692 0.07470703 42.45263672 C-2.57895837 40.59463376 -5.06799044 38.56509477 -7.5625 36.5 C-11.6464942 33.24961697 -15.79926316 30.09775007 -20 27 C-19.5937754 17.453722 -13.50586457 11.14427748 -6.9296875 4.7265625 C-1.64705882 0 -1.64705882 0 0 0 Z " fill="#1F1F22" transform="translate(366,343)"/>
<path d="M0 0 C10.56 0 21.12 0 32 0 C32.04125 4.455 32.0825 8.91 32.125 13.5 C32.14320801 14.88896484 32.16141602 16.27792969 32.18017578 17.70898438 C32.2373145 30.48593877 32.2373145 30.48593877 30 36 C27.89415487 38.01847816 26.22749988 39.36361176 23.8125 40.875 C23.20188721 41.28282715 22.59127441 41.6906543 21.9621582 42.11083984 C20.66379672 42.97487576 19.35879876 43.82900977 18.04785156 44.67382812 C15.93643454 46.04116447 13.8533376 47.44462062 11.7734375 48.859375 C1.23896515 56 1.23896515 56 0 56 C0 37.52 0 19.04 0 0 Z " fill="#37373B" transform="translate(692,516)"/>
<path d="M0 0 C21.67348297 10.26638667 21.67348297 10.26638667 28.8125 14.125 C30.37698256 14.95949974 31.94209366 15.79282214 33.5078125 16.625 C34.25708008 17.02332031 35.00634766 17.42164063 35.77832031 17.83203125 C41.13735963 20.64935478 46.56915239 23.32444375 52 26 C39.95777869 34.02814754 25.81979663 39.72878084 12.6875 45.75 C11.75768311 46.17990234 10.82786621 46.60980469 9.86987305 47.05273438 C9.00918213 47.44267578 8.14849121 47.83261719 7.26171875 48.234375 C6.50850342 48.57694336 5.75528809 48.91951172 4.97924805 49.27246094 C3 50 3 50 0 50 C0 33.5 0 17 0 0 Z " fill="#8343A3" transform="translate(512,351)"/>
<path d="M0 0 C3.5 0.1875 3.5 0.1875 7 1 C9 4 9 4 8.9375 6.4375 C6.4800683 13.15447997 -2.81944467 16.2617425 -8.90625 19.16015625 C-23.08866635 25.64530596 -42.22509788 26.76137317 -57.234375 22.109375 C-65.74237496 18.69656146 -74.8750698 15.02126145 -81 8 C-81 3 -81 3 -79 1 C-73.30002083 0.45342666 -69.85778613 1.76480471 -65.1875 4.8125 C-56.3082273 10.5420657 -47.72474913 12.5544877 -37.1875 12.4375 C-36.22481201 12.42992676 -35.26212402 12.42235352 -34.27026367 12.41455078 C-22.29374675 12.13858025 -8.76381275 8.76381275 0 0 Z " fill="#43E2EB" transform="translate(548,603)"/>
<path d="M0 0 C5.67297886 5.33364424 10.07932892 10.76181516 13 18 C13 18.99 13 19.98 13 21 C8.55126691 21.54187576 4.43079001 21.76536561 0 21 C-2.34060873 19.00679145 -3.68523798 16.97670035 -5.33203125 14.390625 C-8.09891828 10.42496958 -11.81408803 8.28722335 -16 6 C-16.60199219 5.6596875 -17.20398438 5.319375 -17.82421875 4.96875 C-26.09438998 1.09378908 -36.73876504 1.84506125 -45.125 4.875 C-46.75904327 5.56221446 -48.3847628 6.26967823 -50 7 C-51.66441908 7.6722584 -53.33048052 8.3405101 -55 9 C-55.67354499 7.56570999 -56.33859701 6.12742943 -57 4.6875 C-57.37125 3.88699219 -57.7425 3.08648437 -58.125 2.26171875 C-59 0 -59 0 -59 -3 C-56.77447742 -4.15341698 -54.54504031 -5.29781159 -52.3125 -6.4375 C-51.68666016 -6.76298828 -51.06082031 -7.08847656 -50.41601562 -7.42382812 C-33.92970393 -15.79645762 -13.99755414 -11.00107174 0 0 Z " fill="#AC70D0" transform="translate(448,460)"/>
<path d="M0 0 C0.33 0 0.66 0 1 0 C1 20.79 1 41.58 1 63 C-9.89 63 -20.78 63 -32 63 C-32 49.8 -32 36.6 -32 23 C-31.67 23 -31.34 23 -31 23 C-31 31.25 -31 39.5 -31 48 C-28.92976563 47.13375 -26.85953125 46.2675 -24.7265625 45.375 C-22.72463631 44.54016606 -20.72220802 43.70654789 -18.71972656 42.87304688 C-17.32629239 42.2922869 -15.93338525 41.71026074 -14.54101562 41.12695312 C-12.54173168 40.28964617 -10.54060824 39.45688311 -8.5390625 38.625 C-7.33459473 38.12226563 -6.13012695 37.61953125 -4.88916016 37.1015625 C-2 36 -2 36 0 36 C0 24.12 0 12.24 0 0 Z " fill="#4C2569" transform="translate(332,443)"/>
<path d="M0 0 C0.33 0 0.66 0 1 0 C1 12.54 1 25.08 1 38 C-9.56 38 -20.12 38 -31 38 C-31 29.09 -31 20.18 -31 11 C-21 15 -11 19 -1 23 C-0.67 15.41 -0.34 7.82 0 0 Z " fill="#8246A2" transform="translate(723,468)"/>
<path d="M0 0 C5.5081291 3.45859269 8.96426111 8.89278332 11 15 C11.94144636 23.08298949 10.71762812 29.31574619 6 36 C1.02802805 41.51306951 -3.65539393 44.48791864 -11.1484375 45.37109375 C-18.5030744 45.52246037 -23.45278899 45.02795154 -29 40 C-34.7335032 34.48903003 -38.06762824 28.77740329 -38.5 20.6875 C-38.28259588 13.80618689 -35.91990085 8.21255606 -31.28515625 3.11328125 C-22.4575002 -4.8644473 -10.46477814 -5.23238907 0 0 Z M-30.87109375 10.4140625 C-34.17306163 15.05281322 -33.48759929 20.5265263 -33 26 C-31.29960709 31.95623346 -27.98699498 35.49849289 -23 39 C-16.94112991 41.01962336 -9.5577647 41.08708072 -3.625 38.5625 C1.00764486 35.78097474 3.96642031 31.9767241 6 27 C7.08651407 21.0515309 6.90556211 15.78972725 3.8125 10.5 C0.08402413 5.45189503 -3.82971047 2.45183283 -10 1 C-19.25928328 0.10394033 -25.10601708 3.21949815 -30.87109375 10.4140625 Z " fill="#5BE9F0" transform="translate(621,476)"/>
<path d="M0 0 C6.22209328 3.8836802 10.03017966 9.18554892 12.46484375 16.046875 C13.57741759 23.38986231 12.21739681 29.57519601 8.77734375 36.109375 C4.22670089 41.45395981 -1.5383334 45.59647623 -8.58984375 46.578125 C-16.17035671 46.64565741 -21.54561323 46.3927081 -27.22265625 41.109375 C-33.19717341 35.21800221 -36.48341322 30.46780012 -36.66015625 21.859375 C-36.53832067 14.67919818 -34.67427709 9.79233772 -29.765625 4.5546875 C-28.28515625 3.234375 -28.28515625 3.234375 -25.22265625 1.109375 C-24.37703125 0.51125 -23.53140625 -0.086875 -22.66015625 -0.703125 C-15.59849899 -3.1426066 -6.89825065 -3.09181636 0 0 Z M-29.09375 11.5234375 C-32.54947109 16.37818755 -31.80409385 22.40193008 -31.22265625 28.109375 C-30.08006482 31.33732388 -28.53439363 33.60252935 -26.22265625 36.109375 C-25.74957031 36.6353125 -25.27648437 37.16125 -24.7890625 37.703125 C-20.17915678 41.84169372 -15.22254775 41.72371512 -9.24609375 41.45703125 C-2.71381932 40.70590409 0.44318481 37.77703373 4.48046875 32.92578125 C7.97681233 28.02879401 8.42739904 24.01987772 7.77734375 18.109375 C5.97743671 12.70965387 3.80859825 7.94250519 -1.19921875 4.9140625 C-12.29879099 -0.54036647 -21.46564974 2.00390094 -29.09375 11.5234375 Z " fill="#53E3EC" transform="translate(428.22265625,474.890625)"/>
<path d="M0 0 C1.32 0.33 2.64 0.66 4 1 C4 16.84 4 32.68 4 49 C5.65 49.66 7.3 50.32 9 51 C10.52073876 51.88283714 12.01787157 52.80727208 13.4921875 53.765625 C14.35013916 54.31871338 15.20809082 54.87180176 16.09204102 55.44165039 C17.01041748 56.03840576 17.92879395 56.63516113 18.875 57.25 C26.71065896 62.29070769 34.59206454 67.23762841 42.5625 72.0625 C49.79464939 76.44185022 57.00713054 80.8487268 64.1875 85.3125 C77.0623752 93.31090939 90.03389726 101.1507179 103 109 C102.67 110.65 102.34 112.3 102 114 C98.54052173 114 97.66595835 113.36547713 94.8359375 111.4921875 C93.97701904 110.92822266 93.11810059 110.36425781 92.2331543 109.78320312 C91.28996338 109.15349609 90.34677246 108.52378906 89.375 107.875 C87.89157104 106.89563477 87.89157104 106.89563477 86.37817383 105.89648438 C83.5511962 104.02688232 80.72896344 102.15046532 77.90863037 100.27087402 C75.88919492 98.92621971 73.86791681 97.58437272 71.84619141 96.24316406 C67.45788705 93.33189058 63.07192798 90.41710788 58.6875 87.5 C57.98139587 87.03027771 57.27529175 86.56055542 56.54779053 86.07659912 C49.31737831 81.26312212 42.11304376 76.42507522 35.01489258 71.41748047 C32.53687205 69.67418867 30.02626889 67.98498357 27.5 66.3125 C26.51257813 65.65636719 25.52515625 65.00023437 24.5078125 64.32421875 C22.58644511 63.05033053 20.66412592 61.77789909 18.74121094 60.50634766 C16.28450921 58.88118285 13.82973403 57.25313495 11.375 55.625 C10.58029297 55.10075439 9.78558594 54.57650879 8.96679688 54.03637695 C8.22236328 53.54226318 7.47792969 53.04814941 6.7109375 52.5390625 C6.04368652 52.09771973 5.37643555 51.65637695 4.68896484 51.20166016 C3 50 3 50 1 48 C0.67434506 45.17970531 0.48060458 42.4561953 0.375 39.625 C0.33705322 38.76680664 0.29910645 37.90861328 0.26000977 37.02441406 C-0.21726753 24.69096256 -0.08691942 12.33988371 0 0 Z " fill="#914FAC" transform="translate(365,580)"/>
<path d="M0 0 C15.18 0 30.36 0 46 0 C51.21643108 12.92767702 56.3953771 25.8670954 61.38461304 38.88418579 C61.87695225 40.16646755 62.37159135 41.44786869 62.86856079 42.72836304 C63.56741415 44.53120683 64.25656626 46.33780206 64.9453125 48.14453125 C65.34250488 49.17940674 65.73969727 50.21428223 66.14892578 51.28051758 C67 54 67 54 67 58 C66.34 58 65.68 58 65 58 C63.23537317 54.91190305 63 53.76687864 63 50 C62.34 50 61.68 50 61 50 C60.59454956 48.97471191 60.59454956 48.97471191 60.1809082 47.92871094 C56.6174334 39.13126853 52.47063449 30.71053568 48.1875 22.25 C45.815625 17.5475 43.44375 12.845 41 8 C21.695 7.505 21.695 7.505 2 7 C0 3 0 3 0 0 Z " fill="#A264C0" transform="translate(490,668)"/>
<path d="M0 0 C5.8955099 1.59993278 10.78155011 4.61352224 16 7.6875 C23.06413766 11.79066919 30.13777703 15.65057991 37.48046875 19.23046875 C43.27621994 22.14442579 48.92005218 25.32391711 54.56640625 28.515625 C57.40401449 30.11946366 60.25942417 31.6702492 63.15234375 33.171875 C64.11430664 33.68439819 64.11430664 33.68439819 65.09570312 34.20727539 C66.81645793 35.12308008 68.5465853 36.0212132 70.27734375 36.91796875 C75.27581671 40.74033043 76.67719345 47.71938069 78.65136719 53.54003906 C78.89725082 54.25800659 79.14313446 54.97597412 79.39646912 55.71569824 C80.19976095 58.06461055 80.99872188 60.41496196 81.796875 62.765625 C82.07118599 63.57187065 82.34549698 64.3781163 82.62812042 65.20879364 C84.0760141 69.46463554 85.52061126 73.72157914 86.96240234 77.97949219 C88.45300456 82.37951055 89.95463438 86.77568242 91.4587822 91.17108536 C92.61432419 94.55415989 93.76183912 97.93991665 94.90714264 101.32646942 C95.45756684 102.94943574 96.01101875 104.57137844 96.56752777 106.19226837 C97.34226681 108.45124676 98.10560834 110.7137687 98.86621094 112.97753906 C99.21518684 113.98279633 99.21518684 113.98279633 99.57121277 115.00836182 C101.11412296 119.65763112 101.11412296 119.65763112 100 123 C99.56429687 121.8140625 99.12859375 120.628125 98.6796875 119.40625 C95.7398448 111.41077501 92.79508788 103.41714495 89.8125 95.4375 C89.36519531 94.23996094 88.91789062 93.04242187 88.45703125 91.80859375 C87.41926246 89.06833681 86.34099176 86.34681597 85.24609375 83.62890625 C82.47309055 76.72366183 79.80802666 69.77695953 77.14404297 62.82910156 C76.54230247 61.26148706 75.93908461 59.69443894 75.33447266 58.12792969 C74.45414248 55.84692373 73.57813653 53.56430064 72.703125 51.28125 C72.43131409 50.57923462 72.15950317 49.87721924 71.87945557 49.15393066 C70 44.22826037 70 44.22826037 70 42 C69.30068359 41.74130127 68.60136719 41.48260254 67.88085938 41.21606445 C64.71764735 39.88081368 61.86792036 38.28048504 58.90625 36.54296875 C58.32642365 36.20364822 57.74659729 35.8643277 57.14920044 35.51472473 C55.26384249 34.40949813 53.38177887 33.29880784 51.5 32.1875 C50.19059444 31.41731433 48.88118687 30.64713206 47.57177734 29.87695312 C38.18440612 24.34344089 28.89096963 18.66926415 19.65234375 12.890625 C14.57258242 9.71749066 9.4333949 6.64666291 4.26220703 3.625 C2.8255881 2.77632991 1.4099306 1.89230631 0 1 C0 0.67 0 0.34 0 0 Z " fill="#343336" transform="translate(349,534)"/>
<path d="M0 0 C0.1858667 1.04003174 0.3717334 2.08006348 0.56323242 3.15161133 C5.13572972 28.74151003 5.13572972 28.74151003 9.8125 54.3125 C10.00674561 55.36348877 10.20099121 56.41447754 10.40112305 57.49731445 C11.41790816 62.9679488 12.48021003 68.42442676 13.62719727 73.86938477 C14.1051131 76.60073479 14.14550228 79.23545672 14 82 C13.34 82 12.68 82 12 82 C9.59393805 72.85965292 7.49594021 63.70153877 5.625 54.4375 C3.20047508 42.49816305 0.16477902 30.76100312 -3 19 C-3.63466612 16.62723945 -4.25877827 14.25268573 -4.875 11.875 C-5.09929687 11.02679688 -5.32359375 10.17859375 -5.5546875 9.3046875 C-6.03475062 6.82015031 -6.08085383 4.52443611 -6 2 C-2.25 0 -2.25 0 0 0 Z " fill="#38373B" transform="translate(405,323)"/>
<path d="M0 0 C0.556875 0.226875 1.11375 0.45375 1.6875 0.6875 C-6.17578125 5.9296875 -14.0390625 11.171875 -21.90234375 16.4140625 C-22.85729736 17.05085937 -23.81225098 17.68765625 -24.79614258 18.34375 C-26.77845308 19.66496265 -28.76137149 20.98526362 -30.74487305 22.3046875 C-35.7922615 25.66400359 -40.83176489 29.03360407 -45.85258484 32.4324646 C-48.33584428 34.11259554 -50.82256566 35.78756201 -53.30960083 37.46209717 C-54.51447729 38.27539435 -55.71768376 39.09117136 -56.91915894 39.90948486 C-58.59422566 41.05005162 -60.27549582 42.18149176 -61.95703125 43.3125 C-63.40106323 44.29089844 -63.40106323 44.29089844 -64.87426758 45.2890625 C-67.3125 46.6875 -67.3125 46.6875 -70.3125 46.6875 C-70.6425 45.0375 -70.9725 43.3875 -71.3125 41.6875 C-70.7455542 41.3565332 -70.1786084 41.02556641 -69.59448242 40.68457031 C-58.82330754 34.38594184 -48.12202375 28.01034519 -37.60180664 21.30004883 C-27.60434992 14.93573991 -17.45784352 8.81242037 -7.3125 2.6875 C-6.04865479 1.82330444 -6.04865479 1.82330444 -4.75927734 0.94165039 C-2.3125 -0.3125 -2.3125 -0.3125 0 0 Z " fill="#9F60BF" transform="translate(627.3125,647.3125)"/>
<path d="M0 0 C1.48606499 0.03870964 1.48606499 0.03870964 3.00215149 0.07820129 C4.01892471 0.08527603 5.03569794 0.09235077 6.08328247 0.09963989 C9.33432758 0.12765336 12.58365727 0.19040669 15.83418274 0.25398254 C18.03663185 0.27905633 20.23910792 0.3018711 22.44160461 0.32234192 C27.84388369 0.37750244 33.24516069 0.46119763 38.64668274 0.56648254 C38.64668274 0.89648254 38.64668274 1.22648254 38.64668274 1.56648254 C23.79668274 1.56648254 8.94668274 1.56648254 -6.35331726 1.56648254 C-5.69331726 4.20648254 -5.03331726 6.84648254 -4.35331726 9.56648254 C-5.33207703 12.87043762 -5.33207703 12.87043762 -7.04472351 16.08601379 C-7.34643967 16.67009506 -7.64815582 17.25417633 -7.95901489 17.85595703 C-8.92244919 19.70965712 -9.91751027 21.54387008 -10.91581726 23.37898254 C-11.55937293 24.59718202 -12.20066859 25.81657823 -12.83964539 27.03718567 C-14.0877399 29.42048756 -15.34165101 31.80029193 -16.59989929 34.17829895 C-21.29131451 43.05647739 -21.29131451 43.05647739 -24.35331726 52.56648254 C-25.01331726 52.56648254 -25.67331726 52.56648254 -26.35331726 52.56648254 C-26.47706726 53.35023254 -26.60081726 54.13398254 -26.72831726 54.94148254 C-27.35331726 57.56648254 -27.35331726 57.56648254 -29.35331726 59.56648254 C-28.77959697 53.19389262 -26.73057129 47.71735483 -24.42362976 41.77742004 C-24.03263092 40.75596893 -23.64163208 39.73451782 -23.23878479 38.68211365 C-22.41345016 36.53089088 -21.58452947 34.38104091 -20.75224304 32.23249817 C-19.48116706 28.94884461 -18.22304812 25.66044407 -16.96659851 22.37117004 C-16.16137262 20.27712622 -15.35540797 18.18336629 -14.54862976 16.08992004 C-14.17352264 15.10961823 -13.79841553 14.12931641 -13.41194153 13.11930847 C-12.71805461 11.33461666 -12.00650032 9.55663604 -11.27288818 7.78790283 C-10.54330498 6.02543852 -9.87893922 4.2360012 -9.23832703 2.43928528 C-6.42982912 -0.35102523 -3.85048004 -0.00157935 0 0 Z " fill="#794195" transform="translate(496.3533172607422,666.4335174560547)"/>
<path d="M0 0 C6.4856373 2.90688183 11.02249923 8.43124807 13.625 14.9375 C15.25193532 19.52249953 15.18443647 24.29415536 13.625 28.875 C13.295 29.555625 12.965 30.23625 12.625 30.9375 C11.965 30.9375 11.305 30.9375 10.625 30.9375 C10.13 31.9275 10.13 31.9275 9.625 32.9375 C8.79326082 29.71451067 8.62596571 26.8606846 8.75 23.5625 C8.79838101 17.73742591 7.07191327 13.70594955 3.375 9.1875 C-1.37519849 5.30097396 -6.02251756 3.35908392 -12.2421875 3.56640625 C-16.24785862 4.26336368 -19.78948823 6.07834575 -23.375 7.9375 C-23.94921875 6.0390625 -23.94921875 6.0390625 -24.375 3.9375 C-19.09708471 -3.2849104 -7.67238702 -2.43711117 0 0 Z " fill="#56E6F0" transform="translate(426.375,474.0625)"/>
<path d="M0 0 C0 7.26 0 14.52 0 22 C-4.93603381 23.23400845 -6.27175626 22.25683943 -10.75 20.0625 C-11.92046875 19.49660156 -13.0909375 18.93070312 -14.296875 18.34765625 C-15.18890625 17.90292969 -16.0809375 17.45820313 -17 17 C-14.52038852 11.80727102 -6.55077842 0 0 0 Z " fill="#44444C" transform="translate(681,380)"/>
<path d="M0 0 C1.19863307 3.5958992 0.6506481 5.27736528 0 9 C-0.25694899 12.18110276 -0.39308264 15.36662468 -0.53515625 18.5546875 C-0.57813339 19.45623566 -0.62111053 20.35778381 -0.66539001 21.28665161 C-0.80109056 24.14928921 -0.93186639 27.01212715 -1.0625 29.875 C-1.15397121 31.82293199 -1.24576459 33.77084887 -1.33789062 35.71875 C-1.56232435 40.47899992 -1.78234342 45.23943559 -2 50 C-3.485 50.495 -3.485 50.495 -5 51 C-5.12660072 44.21919654 -5.21426679 37.43869681 -5.2746582 30.65698242 C-5.29982875 28.34924938 -5.33396797 26.04159626 -5.37719727 23.73413086 C-5.43773526 20.42020985 -5.46618449 17.10734106 -5.48828125 13.79296875 C-5.52699089 12.24128242 -5.52699089 12.24128242 -5.56648254 10.6582489 C-5.56752423 8.00816222 -5.54388249 5.59381255 -5 3 C-2.46948242 0.82543945 -2.46948242 0.82543945 0 0 Z " fill="#552374" transform="translate(660,578)"/>
<path d="M0 0 C1.32 0.33 2.64 0.66 4 1 C4 16.84 4 32.68 4 49 C5.65 49.66 7.3 50.32 9 51 C8.34 51.66 7.68 52.32 7 53 C1.24013492 49.15754359 1.24013492 49.15754359 0.1953125 44.12109375 C0.14103226 42.56066371 0.11982472 40.99886526 0.125 39.4375 C0.1051001 38.5928418 0.0852002 37.74818359 0.06469727 36.87792969 C0.00749117 33.9179756 0.00135162 30.96049936 0 28 C-0.00692871 26.78779785 -0.01385742 25.5755957 -0.02099609 24.32666016 C-0.06704296 16.21729467 -0.0571199 8.10926847 0 0 Z " fill="#82439D" transform="translate(365,580)"/>
<path d="M0 0 C0.33 0 0.66 0 1 0 C1.09796875 0.79664063 1.1959375 1.59328125 1.296875 2.4140625 C2.43601029 10.91309731 2.43601029 10.91309731 7 18 C8.20657256 18.74616987 9.43759229 19.45394299 10.6875 20.125 C14 22 14 22 14.8125 24.125 C14.874375 24.74375 14.93625 25.3625 15 26 C15.66 26.66 16.32 27.32 17 28 C10.3136476 27.36320453 6.19237617 24.49867483 1.75 19.625 C-0.73476095 16.61336565 -2.06556998 13.83116309 -3 10 C-2.34 9.34 -1.68 8.68 -1 8 C-0.54188325 6.02764667 -0.54188325 6.02764667 -0.375 3.875 C-0.25125 2.59625 -0.1275 1.3175 0 0 Z " fill="#51E2ED" transform="translate(587,493)"/>
<path d="M0 0 C5.13526251 1.76036382 9.57672922 4.62933029 14.1875 7.4375 C15.49315918 8.22688965 15.49315918 8.22688965 16.82519531 9.03222656 C19.55299005 10.68349371 22.27705091 12.34075607 25 14 C25.8883252 14.54092285 26.77665039 15.0818457 27.69189453 15.63916016 C32.79960395 18.75129939 37.90188498 21.87217098 43 25 C42.01 25.495 42.01 25.495 41 26 C40.67 26.66 40.34 27.32 40 28 C34.55078125 24.3671875 29.1015625 20.734375 23.65234375 17.1015625 C22.76657654 16.51121216 22.76657654 16.51121216 21.86291504 15.90893555 C20.67297967 15.11542827 19.48344491 14.32131992 18.29431152 13.52661133 C15.36091368 11.5672507 12.42155177 9.61843821 9.46679688 7.69140625 C8.37947266 6.97855469 7.29214844 6.26570312 6.171875 5.53125 C5.19831055 4.89767578 4.22474609 4.26410156 3.22167969 3.61132812 C1 2 1 2 0 0 Z " fill="#8D4BA8" transform="translate(373,632)"/>
<path d="M0 0 C2.7211493 0.88437352 3.95082809 1.40267703 5.5 3.8125 C5.25546876 7.15442692 4.89456443 8.41793557 2.5 10.8125 C-0.6304173 11.14552312 -2.67898298 11.28921956 -5.4375 9.6875 C-6.5 7.8125 -6.5 7.8125 -6.375 4.75 C-5.26163694 1.01228114 -4.00752397 -0.3005643 0 0 Z " fill="#3DE3EA" transform="translate(631.5,615.1875)"/>
<path d="M0 0 C2.9375 0.875 2.9375 0.875 4.9375 3.875 C4.6133631 7.19740324 4.32973697 8.48276303 1.9375 10.875 C-1.0625 11.125 -1.0625 11.125 -4.0625 10.875 C-6.0625 8.875 -6.0625 8.875 -6.375 5.9375 C-6.0625 2.875 -6.0625 2.875 -4.9375 0.9375 C-3.0625 -0.125 -3.0625 -0.125 0 0 Z " fill="#3DE1ED" transform="translate(394.0625,615.125)"/>
<path d="M0 0 C0.33 0 0.66 0 1 0 C1 15.84 1 31.68 1 48 C2.65 48.66 4.3 49.32 6 50 C5.34 50.66 4.68 51.32 4 52 C-0.22797927 49.18134715 -0.22797927 49.18134715 -2 47 C-2.53855713 44.14353521 -2.29847264 41.93498095 -2 39 C-1.67 39 -1.34 39 -1 39 C-0.67 26.13 -0.34 13.26 0 0 Z " fill="#693881" transform="translate(368,581)"/>
<path d="M0 0 C1.77641602 5.55130005 1.53883587 10.76365102 -1 16 C-1.66 16 -2.32 16 -3 16 C-3.33 16.66 -3.66 17.32 -4 18 C-4.95973961 14.10331285 -5.0169791 10.74308995 -4.6875 6.75 C-4.60886719 5.69296875 -4.53023438 4.6359375 -4.44921875 3.546875 C-4.30097656 2.70640625 -4.15273438 1.8659375 -4 1 C-2 0 -2 0 0 0 Z " fill="#5AE7F0" transform="translate(440,489)"/>
<path d="M0 0 C0.77923828 0.61488281 0.77923828 0.61488281 1.57421875 1.2421875 C5.2423777 4.07636576 8.51449706 6.59828033 13 8 C12.67 9.32 12.34 10.64 12 12 C5.61479646 11.84036991 2.33991635 8.21875117 -2 4 C-1.67 3.34 -1.34 2.68 -1 2 C-0.67 2 -0.34 2 0 2 C0 1.34 0 0.68 0 0 Z " fill="#50E8F3" transform="translate(399,508)"/>
<path d="M0 0 C0.99 0.33 1.98 0.66 3 1 C0.09426115 4.10613463 -1.76770946 5.8261078 -6.15625 6.16796875 C-7.31640625 6.17763672 -7.31640625 6.17763672 -8.5 6.1875 C-9.66015625 6.20876953 -9.66015625 6.20876953 -10.84375 6.23046875 C-13 6 -13 6 -16 4 C-15.67 3.34 -15.34 2.68 -15 2 C-15.66 1.67 -16.32 1.34 -17 1 C-16.10796875 1.09539063 -15.2159375 1.19078125 -14.296875 1.2890625 C-13.12640625 1.39992188 -11.9559375 1.51078125 -10.75 1.625 C-9.58984375 1.74101563 -8.4296875 1.85703125 -7.234375 1.9765625 C-3.96606848 2.00024588 -2.77172865 1.50850719 0 0 Z " fill="#60F2FA" transform="translate(617,515)"/>
<path d="M0 0 C1.65 0.66 3.3 1.32 5 2 C4.07038578 3.15224028 3.1309875 4.29659176 2.1875 5.4375 C1.66542969 6.07558594 1.14335938 6.71367188 0.60546875 7.37109375 C-1 9 -1 9 -4 10 C-3.67 9.01 -3.34 8.02 -3 7 C-4.155 7.350625 -5.31 7.70125 -6.5 8.0625 C-10.9834299 9.20737585 -14.472146 8.80854536 -19 8 C-19 7.67 -19 7.34 -19 7 C-18.11957031 6.87882813 -17.23914063 6.75765625 -16.33203125 6.6328125 C-15.17058594 6.46523438 -14.00914062 6.29765625 -12.8125 6.125 C-11.08966797 5.88136719 -11.08966797 5.88136719 -9.33203125 5.6328125 C-6.27266476 5.05178393 -3.75689585 4.44144828 -1 3 C-0.67 2.01 -0.34 1.02 0 0 Z " fill="#54D7E2" transform="translate(622,509)"/>
<path d="M0 0 C3.51716993 1.31928086 6.65308518 2.87348391 9.86328125 4.8203125 C11.19262695 5.62275391 11.19262695 5.62275391 12.54882812 6.44140625 C13.9168457 7.27478516 13.9168457 7.27478516 15.3125 8.125 C16.24384766 8.68832031 17.17519531 9.25164063 18.13476562 9.83203125 C20.42521142 11.2180446 22.71352076 12.60745628 25 14 C24.01 15.485 24.01 15.485 23 17 C20.47860449 15.27164846 17.95787282 13.54234179 15.4375 11.8125 C14.73302734 11.32974609 14.02855469 10.84699219 13.30273438 10.34960938 C11.19836348 8.90467267 9.09805399 7.45409194 7 6 C6.3105127 5.52353027 5.62102539 5.04706055 4.91064453 4.55615234 C3.25509869 3.39697827 1.62472242 2.20199569 0 1 C0 0.67 0 0.34 0 0 Z " fill="#84459D" transform="translate(373,632)"/>
<path d="M0 0 C0.33 0 0.66 0 1 0 C1.07347656 0.99580078 1.07347656 0.99580078 1.1484375 2.01171875 C1.54709087 6.7199525 2.0177977 10.66393247 4 15 C4.36871088 16.65919896 4.71281674 18.3247643 5 20 C2.125 18.9375 2.125 18.9375 -1 17 C-2.5 13.5625 -2.5 13.5625 -3 10 C-2.1875 7.9375 -2.1875 7.9375 -1 6 C-0.61709538 4.00889599 -0.27395385 2.00899487 0 0 Z " fill="#4ED6E1" transform="translate(396,493)"/>
<path d="M0 0 C3.3 0 6.6 0 10 0 C9.67 0.99 9.34 1.98 9 3 C9.66 3.66 10.32 4.32 11 5 C6.38 5 1.76 5 -3 5 C-2.34 4.67 -1.68 4.34 -1 4 C-0.67 2.68 -0.34 1.36 0 0 Z " fill="#50D6E2" transform="translate(412,516)"/>
<path d="M0 0 C0.66 0 1.32 0 2 0 C3.62849969 4.35590568 4.34118446 8.23934612 4.625 12.875 C4.69976562 14.02742188 4.77453125 15.17984375 4.8515625 16.3671875 C4.90054687 17.23601562 4.94953125 18.10484375 5 19 C4.34 19 3.68 19 3 19 C0.99134292 12.49577707 -0.38614349 6.8218683 0 0 Z " fill="#3B3A3D" transform="translate(414,386)"/>
<path d="M0 0 C2.625 0.375 2.625 0.375 5 1 C5.625 3.375 5.625 3.375 6 6 C5.34 6.66 4.68 7.32 4 8 C1.375 7.625 1.375 7.625 -1 7 C-1.625 4.625 -1.625 4.625 -2 2 C-1.34 1.34 -0.68 0.68 0 0 Z " fill="#35C5D1" transform="translate(636,364)"/>
<path d="M0 0 C0.33 0 0.66 0 1 0 C2 6 3 12 4 18 C2.68 18 1.36 18 0 18 C-1.625 15.25 -1.625 15.25 -3 12 C-2.25 10.125 -2.25 10.125 -1 8 C-0.51690491 5.33783768 -0.26957665 2.69576652 0 0 Z " fill="#52DAE4" transform="translate(587,493)"/>
<path d="M0 0 C2.35418843 2.35418843 2.99608031 4.25583671 4.125 7.375 C4.47820313 8.33148437 4.83140625 9.28796875 5.1953125 10.2734375 C6 13 6 13 6 17 C5.34 17 4.68 17 4 17 C2.23537317 13.91190305 2 12.76687864 2 9 C1.34 9 0.68 9 0 9 C-1.125 3.375 -1.125 3.375 0 0 Z " fill="#975FB2" transform="translate(551,709)"/>
<path d="M0 0 C-2.78318117 1.86715811 -5.57779333 3.71643354 -8.375 5.5625 C-9.1690625 6.09552734 -9.963125 6.62855469 -10.78125 7.17773438 C-11.54179688 7.67724609 -12.30234375 8.17675781 -13.0859375 8.69140625 C-13.7876709 9.15748291 -14.4894043 9.62355957 -15.21240234 10.10375977 C-15.80230957 10.39951904 -16.3922168 10.69527832 -17 11 C-17.66 10.67 -18.32 10.34 -19 10 C-15.96218242 6.6986609 -12.79842776 4.46004112 -8.9375 2.1875 C-7.37322266 1.24970703 -7.37322266 1.24970703 -5.77734375 0.29296875 C-3 -1 -3 -1 0 0 Z " fill="#9D63BC" transform="translate(649,635)"/>
<path d="M0 0 C0.99 0.99 1.98 1.98 3 3 C2.01 5.64 1.02 8.28 0 11 C-0.66 11 -1.32 11 -2 11 C-2.12375 11.78375 -2.2475 12.5675 -2.375 13.375 C-3 16 -3 16 -5 18 C-4.42934122 11.58008874 -2.32655091 5.98410537 0 0 Z " fill="#753991" transform="translate(472,708)"/>
<path d="M0 0 C0.66 0 1.32 0 2 0 C3.04976964 3.14930893 3.10131595 5.38814456 3.0625 8.6875 C3.05347656 9.68136719 3.04445313 10.67523438 3.03515625 11.69921875 C3.02355469 12.45847656 3.01195312 13.21773438 3 14 C2.67 14 2.34 14 2 14 C1.67 11.69 1.34 9.38 1 7 C0.01 8.32 -0.98 9.64 -2 11 C-2 8.03 -2 5.06 -2 2 C-1.34 2 -0.68 2 0 2 C0 1.34 0 0.68 0 0 Z " fill="#56D1DD" transform="translate(629,488)"/>
<path d="M0 0 C1.60294922 0.15275391 1.60294922 0.15275391 3.23828125 0.30859375 C4.45064453 0.43427734 4.45064453 0.43427734 5.6875 0.5625 C5.6875 0.8925 5.6875 1.2225 5.6875 1.5625 C4.47513672 1.76166016 4.47513672 1.76166016 3.23828125 1.96484375 C2.16964844 2.14144531 1.10101562 2.31804687 0 2.5 C-1.05574219 2.67402344 -2.11148438 2.84804688 -3.19921875 3.02734375 C-5.91499604 3.49417121 -8.61374235 4.00672616 -11.3125 4.5625 C-11.3125 3.2425 -11.3125 1.9225 -11.3125 0.5625 C-7.36602382 -0.42594951 -4.03857036 -0.39941905 0 0 Z " fill="#5FF4FA" transform="translate(606.3125,475.4375)"/>
<path d="M0 0 C0.99 0 1.98 0 3 0 C3 3.3 3 6.6 3 10 C1.68 9.67 0.36 9.34 -1 9 C-0.67 6.03 -0.34 3.06 0 0 Z " fill="#66F8FC" transform="translate(628,494)"/>
<path d="M0 0 C3.465 1.98 3.465 1.98 7 4 C7 4.99 7 5.98 7 7 C6.67 6.34 6.34 5.68 6 5 C5.01 5 4.02 5 3 5 C2.67 5.66 2.34 6.32 2 7 C0.02 6.01 -1.96 5.02 -4 4 C-2.68 3.67 -1.36 3.34 0 3 C0 2.01 0 1.02 0 0 Z " fill="#59E1EA" transform="translate(618,475)"/>
<path d="M0 0 C0.66 0.66 1.32 1.32 2 2 C2.99 1.67 3.98 1.34 5 1 C4.34 2.98 3.68 4.96 3 7 C2.67 6.34 2.34 5.68 2 5 C0.35 5.33 -1.3 5.66 -3 6 C-2.01 4.02 -1.02 2.04 0 0 Z " fill="#4FD6E1" transform="translate(434,504)"/>
<path d="M0 0 C0.78375 0.2475 1.5675 0.495 2.375 0.75 C2.705 1.41 3.035 2.07 3.375 2.75 C2.4675 2.646875 1.56 2.54375 0.625 2.4375 C-2.82228131 2.41048792 -2.82228131 2.41048792 -5 5.25 C-5.53625 6.075 -6.0725 6.9 -6.625 7.75 C-6.3125 4.875 -6.3125 4.875 -5.625 1.75 C-2.625 -0.25 -2.625 -0.25 0 0 Z " fill="#2FC3D3" transform="translate(631.625,615.25)"/>
<path d="M0 0 C0.99 0.495 0.99 0.495 2 1 C2.4140625 3.06640625 2.4140625 3.06640625 2.625 5.5625 C2.69976562 6.38878906 2.77453125 7.21507812 2.8515625 8.06640625 C2.92503906 9.02353516 2.92503906 9.02353516 3 10 C2.34 10 1.68 10 1 10 C-0.1577506 6.52674819 -0.06866652 3.63932552 0 0 Z " fill="#484648" transform="translate(416,395)"/>
<path d="M0 0 C2.97 0.495 2.97 0.495 6 1 C4.8125 2.5625 4.8125 2.5625 3 4 C0.3125 3.6875 0.3125 3.6875 -2 3 C-1.34 2.67 -0.68 2.34 0 2 C0 1.34 0 0.68 0 0 Z " fill="#57EDF8" transform="translate(422,516)"/>
<path d="M0 0 C1.65 0 3.3 0 5 0 C5.33 1.32 5.66 2.64 6 4 C4.35 4 2.7 4 1 4 C0.67 2.68 0.34 1.36 0 0 Z " fill="#62F1F8" transform="translate(612,474)"/>
<path d="M0 0 C1.98 0.495 1.98 0.495 4 1 C3.67 2.32 3.34 3.64 3 5 C1.68 5 0.36 5 -1 5 C-0.67 3.35 -0.34 1.7 0 0 Z " fill="#48F1FB" transform="translate(637,365)"/>
</svg>
